<svg version="1.1" id="Layer_1" xmlns="http://www.w3.org/2000/svg" xmlns:xlink="http://www.w3.org/1999/xlink" x="0px" y="0px" viewBox="0 0 320 320" style="enable-background:new 0 0 320 320;" xml:space="preserve"> <style type="text/css">.st0{fill:none;}} </style> <g> <path class="st0" d="M256,21.3H64c-23.5,0-42.7,19.1-42.7,42.7v192c0,7,1.7,13.5,4.7,19.3l91.9-92.3c-3.8-6.8-5.9-14.7-5.9-23.1 c0-26.5,21.5-48,48-48s48,21.5,48,48c0,26.5-21.5,48-48,48c-10.2,0-19.6-3.2-27.4-8.6l-92.4,92c6.8,4.6,15,7.3,23.8,7.3h192 c23.5,0,42.7-19.1,42.7-42.7V64C298.7,40.5,279.5,21.3,256,21.3z"/> <ellipse transform="matrix(0.3827 -0.9239 0.9239 0.3827 -49.05 246.5914)" class="st0" cx="160" cy="160" rx="26.7" ry="26.7"/> <path class="st1" d="M256,0H64C28.7,0,0,28.7,0,64v192c0,12.9,3.9,24.9,10.4,34.9L16,298l3,3l5.9,5.6C35.7,315,49.3,320,64,320h192 c35.3,0,64-28.7,64-64V64C320,28.7,291.3,0,256,0z M117.9,183.1L26,275.3c-3-5.8-4.7-12.4-4.7-19.3V64c0-23.5,19.1-42.7,42.7-42.7 h192c23.5,0,42.7,19.1,42.7,42.7v192c0,23.5-19.1,42.7-42.7,42.7H64c-8.8,0-17-2.7-23.8-7.3l92.4-92 M132.6,199.4 c7.8,5.4,17.2,8.6,27.4,8.6c26.5,0,48-21.5,48-48c0-26.5-21.5-48-48-48s-48,21.5-48,48c0,8.4,2.2,16.2,5.9,23.1 M133.3,160 c0-14.7,12-26.7,26.7-26.7s26.7,12,26.7,26.7s-12,26.7-26.7,26.7S133.3,174.7,133.3,160z"/> </g> </svg>