<?xml version="1.0" encoding="utf-8"?>
<!-- Generator: Adobe Illustrator 22.1.0, SVG Export Plug-In . SVG Version: 6.00 Build 0)  -->
<svg version="1.1" id="Layer_1" xmlns="http://www.w3.org/2000/svg" xmlns:xlink="http://www.w3.org/1999/xlink" x="0px" y="0px"
	 viewBox="0 0 538.3 90" style="enable-background:new 0 0 538.3 90;" xml:space="preserve">
<style type="text/css">
	.st0{fill:#0D171E;}
</style>
<g>
	<path class="st0" d="M72,0H18C8.1,0,0,8.1,0,18v54c0,3.6,1.1,7,2.9,9.8l-0.6,0.6l4.2,4.2L7,86.2c3,2.4,6.8,3.8,11,3.8h54
		c9.9,0,18-8.1,18-18V18C90,8.1,81.9,0,72,0z M84,72c0,6.6-5.4,12-12,12H18c-2.5,0-4.8-0.8-6.7-2.1l25.8-25.8l-0.7-0.7
		c2.3,1.9,5.3,3.1,8.6,3.1c7.5,0,13.5-6,13.5-13.5c0-7.5-6-13.5-13.5-13.5s-13.5,6-13.5,13.5c0,3.3,1.2,6.2,3.1,8.6l-1.7-1.7
		L7.3,77.4C6.5,75.8,6,74,6,72V18c0-6.6,5.4-12,12-12h54c6.6,0,12,5.4,12,12V72z M37.5,45c0-4.1,3.4-7.5,7.5-7.5s7.5,3.4,7.5,7.5
		s-3.4,7.5-7.5,7.5S37.5,49.1,37.5,45z"/>
	<g>
		<path class="st0" d="M130.2,69.6V20.4H143l23.6,30.1V20.4h12.8v49.3h-12.8L143,39.5v30.1H130.2z"/>
		<path class="st0" d="M240.7,63.4c-5,4.8-12.1,7.3-19.4,7.3c-7.3,0-14.4-2.5-19.4-7.3c-5.2-5-7.8-11.9-7.8-18.4
			c0-6.6,2.5-13.5,7.8-18.5c5-4.8,12.1-7.3,19.4-7.3c7.3,0,14.4,2.5,19.4,7.3c5.2,4.9,7.8,11.9,7.8,18.5
			C248.4,51.5,245.9,58.4,240.7,63.4z M211.3,35.6c-2.7,2.6-3.9,6.2-3.9,9.7c0,4.4,2.1,7.4,3.9,9.2c2.4,2.3,5.7,3.9,10,3.9
			c4.4,0,7.6-1.6,9.9-3.8c2.3-2.3,4-5.7,4-9.5c0-3.8-1.7-7.2-4-9.5c-2.7-2.6-6.5-3.9-9.9-3.9C217.7,31.7,213.9,32.9,211.3,35.6z"/>
		<path class="st0" d="M281.8,31.2v38.4H269V31.2h-10.5V20.4h33.8v10.9H281.8z"/>
		<path class="st0" d="M332.5,61.4h-17.9l-3.3,8.3h-13.5l18.9-49.3h14l18.5,49.3h-13.7L332.5,61.4z M329.1,51.6l-5.5-16l-5.4,16
			H329.1z"/>
		<path class="st0" d="M381.5,20.4c3.7,0,8.4,0.6,12,4.4c2.8,2.9,4.2,7.2,4.2,11.1c0,4.2-1.5,7.9-3.9,10.3c-1.9,1.8-4.5,3-6.8,3.4
			l15.4,20.2h-15.9l-12.3-18.9v18.9h-12.8V20.4H381.5z M374.3,42.5h2.4c1.9,0,4.7-0.5,6.2-2c1-1,1.6-2.6,1.6-4.1
			c0-1.5-0.6-3.1-1.7-4.1c-1.2-1.2-3.3-1.9-6.1-1.9h-2.4V42.5z"/>
		<path class="st0" d="M427.3,20.4v49.3h-12.8V20.4H427.3z"/>
		<path class="st0" d="M457,20.4v29.2c0,2.1,0.1,5.2,2.5,7.6c1.5,1.4,3.8,2.4,6.1,2.4s4.5-0.9,5.9-2.1c3-2.6,2.9-6.2,2.9-8.9V20.4
			h12.8v28.3c0,5.2-0.2,10.6-5.5,16c-4.1,4.2-9.3,6.1-16.3,6.1c-7.8,0-13.3-2.7-16.3-5.9c-4.3-4.7-4.8-10.9-4.8-16.2V20.4H457z"/>
		<path class="st0" d="M507.4,54.9c2.7,2.6,6.9,5,11.3,5c2.6,0,4.1-0.8,4.9-1.7c0.7-0.7,1.3-1.8,1.3-3.1c0-1-0.4-2.1-1.4-3
			c-1.3-1.1-3.2-1.6-6.4-2.6l-3.3-1c-2.1-0.7-5.1-1.8-7.1-4c-2.5-2.7-2.8-6.2-2.8-8.7c0-6.1,2.4-9.8,4.5-11.9
			c2.5-2.5,6.6-4.7,12.6-4.7c4.9,0,10.6,1.6,15.2,4l-5.1,10c-3.8-3-6.7-3.3-8.4-3.3c-1.3,0-3,0.3-4.2,1.5c-0.7,0.7-1.3,1.6-1.3,2.7
			c0,0.9,0.1,1.6,0.7,2.2c0.4,0.4,1.3,1.3,4.3,2.2l3.9,1.2c3.1,1,6.4,2.1,8.9,4.9c2.5,2.7,3.2,5.4,3.2,8.8c0,4.5-1.1,8.9-4.7,12.4
			c-4.2,4.2-9.3,5-14.6,5c-3.1,0-6.1-0.3-9.7-1.6c-0.8-0.3-3.9-1.5-7.5-3.9L507.4,54.9z"/>
	</g>
</g>
</svg>
